<mxfile host="app.diagrams.net" modified="2023-04-28T09:19:11.181Z" agent="Mozilla/5.0 (Macintosh; Intel Mac OS X 10_15_7) AppleWebKit/537.36 (KHTML, like Gecko) Chrome/112.0.0.0 Safari/537.36" etag="yzqLz_FqOLLNgJ3buNgl" version="21.2.3" type="github">
  <diagram name="StrÃ¡nka-1" id="pbJBylKxU5VuryBFHDFz">
    <mxGraphModel dx="1026" dy="1750" grid="1" gridSize="10" guides="1" tooltips="1" connect="1" arrows="1" fold="1" page="1" pageScale="1" pageWidth="827" pageHeight="1169" background="none" math="0" shadow="1">
      <root>
        <mxCell id="0" />
        <mxCell id="1" parent="0" />
        <mxCell id="vKwGqFaDPew6xlJv7KLT-27" value="" style="edgeStyle=orthogonalEdgeStyle;rounded=0;orthogonalLoop=1;jettySize=auto;html=1;" edge="1" parent="1" source="vKwGqFaDPew6xlJv7KLT-4" target="vKwGqFaDPew6xlJv7KLT-12">
          <mxGeometry relative="1" as="geometry" />
        </mxCell>
        <mxCell id="vKwGqFaDPew6xlJv7KLT-4" value="CDK Application" style="rounded=1;whiteSpace=wrap;html=1;fillColor=#fff2cc;strokeColor=#d6b656;shadow=1;fontStyle=1" vertex="1" parent="1">
          <mxGeometry x="110" y="-1010" width="120" height="79" as="geometry" />
        </mxCell>
        <mxCell id="vKwGqFaDPew6xlJv7KLT-5" value="ENV" style="rounded=0;whiteSpace=wrap;html=1;fillColor=#dae8fc;strokeColor=#6c8ebf;shadow=1;fontStyle=1" vertex="1" parent="1">
          <mxGeometry x="110" y="-931" width="40" height="20" as="geometry" />
        </mxCell>
        <mxCell id="vKwGqFaDPew6xlJv7KLT-6" value="ENV" style="rounded=0;whiteSpace=wrap;html=1;fillColor=#dae8fc;strokeColor=#6c8ebf;shadow=1;fontStyle=1" vertex="1" parent="1">
          <mxGeometry x="150" y="-931" width="40" height="20" as="geometry" />
        </mxCell>
        <mxCell id="vKwGqFaDPew6xlJv7KLT-7" value="ENV" style="rounded=0;whiteSpace=wrap;html=1;fillColor=#dae8fc;strokeColor=#6c8ebf;shadow=1;fontStyle=1" vertex="1" parent="1">
          <mxGeometry x="190" y="-931" width="40" height="20" as="geometry" />
        </mxCell>
        <mxCell id="vKwGqFaDPew6xlJv7KLT-32" value="" style="edgeStyle=orthogonalEdgeStyle;rounded=0;orthogonalLoop=1;jettySize=auto;html=1;" edge="1" parent="1" source="vKwGqFaDPew6xlJv7KLT-12" target="vKwGqFaDPew6xlJv7KLT-13">
          <mxGeometry relative="1" as="geometry" />
        </mxCell>
        <mxCell id="vKwGqFaDPew6xlJv7KLT-12" value="BUILD&lt;br&gt;(Dockerfile)" style="label;whiteSpace=wrap;html=1;align=center;verticalAlign=bottom;spacingLeft=0;spacingBottom=4;imageAlign=center;imageVerticalAlign=top;image=img/clipart/Gear_128x128.png;arcSize=50;shadow=1;" vertex="1" parent="1">
          <mxGeometry x="110" y="-851" width="120" height="91" as="geometry" />
        </mxCell>
        <mxCell id="vKwGqFaDPew6xlJv7KLT-34" value="" style="edgeStyle=orthogonalEdgeStyle;rounded=0;orthogonalLoop=1;jettySize=auto;html=1;" edge="1" parent="1" source="vKwGqFaDPew6xlJv7KLT-13" target="vKwGqFaDPew6xlJv7KLT-14">
          <mxGeometry relative="1" as="geometry" />
        </mxCell>
        <mxCell id="vKwGqFaDPew6xlJv7KLT-13" value="" style="sketch=0;points=[[0,0,0],[0.25,0,0],[0.5,0,0],[0.75,0,0],[1,0,0],[0,1,0],[0.25,1,0],[0.5,1,0],[0.75,1,0],[1,1,0],[0,0.25,0],[0,0.5,0],[0,0.75,0],[1,0.25,0],[1,0.5,0],[1,0.75,0]];outlineConnect=0;fontColor=#232F3E;gradientColor=#F78E04;gradientDirection=north;fillColor=#D05C17;strokeColor=#ffffff;dashed=0;verticalLabelPosition=bottom;verticalAlign=top;align=center;html=1;fontSize=12;fontStyle=0;aspect=fixed;shape=mxgraph.aws4.resourceIcon;resIcon=mxgraph.aws4.ecr;shadow=1;" vertex="1" parent="1">
          <mxGeometry x="131" y="-700" width="78" height="78" as="geometry" />
        </mxCell>
        <mxCell id="vKwGqFaDPew6xlJv7KLT-14" value="" style="sketch=0;points=[[0,0,0],[0.25,0,0],[0.5,0,0],[0.75,0,0],[1,0,0],[0,1,0],[0.25,1,0],[0.5,1,0],[0.75,1,0],[1,1,0],[0,0.25,0],[0,0.5,0],[0,0.75,0],[1,0.25,0],[1,0.5,0],[1,0.75,0]];outlineConnect=0;fontColor=#232F3E;gradientColor=#F78E04;gradientDirection=north;fillColor=#D05C17;strokeColor=#ffffff;dashed=0;verticalLabelPosition=bottom;verticalAlign=top;align=center;html=1;fontSize=12;fontStyle=0;aspect=fixed;shape=mxgraph.aws4.resourceIcon;resIcon=mxgraph.aws4.ecs;shadow=1;" vertex="1" parent="1">
          <mxGeometry x="131" y="-558" width="78" height="78" as="geometry" />
        </mxCell>
        <mxCell id="vKwGqFaDPew6xlJv7KLT-16" value="AWS ECR" style="text;html=1;strokeColor=none;fillColor=none;align=center;verticalAlign=middle;whiteSpace=wrap;rounded=0;rotation=-90;fontStyle=1" vertex="1" parent="1">
          <mxGeometry x="90" y="-676" width="60" height="30" as="geometry" />
        </mxCell>
        <mxCell id="vKwGqFaDPew6xlJv7KLT-18" value="AWS ECS" style="text;html=1;strokeColor=none;fillColor=none;align=center;verticalAlign=middle;whiteSpace=wrap;rounded=0;rotation=-90;fontStyle=1" vertex="1" parent="1">
          <mxGeometry x="90" y="-534" width="60" height="30" as="geometry" />
        </mxCell>
        <mxCell id="vKwGqFaDPew6xlJv7KLT-23" value="&quot;STRAIGHTFORWARD&quot;" style="text;html=1;fontSize=19;fontStyle=1;verticalAlign=middle;align=center;fillColor=none;" vertex="1" parent="1">
          <mxGeometry x="120" y="-1060" width="100" height="40" as="geometry" />
        </mxCell>
        <mxCell id="vKwGqFaDPew6xlJv7KLT-36" value="" style="edgeStyle=orthogonalEdgeStyle;rounded=0;orthogonalLoop=1;jettySize=auto;html=1;" edge="1" parent="1" source="vKwGqFaDPew6xlJv7KLT-24" target="vKwGqFaDPew6xlJv7KLT-35">
          <mxGeometry relative="1" as="geometry" />
        </mxCell>
        <mxCell id="vKwGqFaDPew6xlJv7KLT-24" value="Script(s),&lt;br&gt;AWS-CLI&lt;br&gt;or&lt;br&gt;CDK Application" style="rounded=1;whiteSpace=wrap;html=1;fillColor=#ffff88;strokeColor=#36393d;shadow=1;fontStyle=1" vertex="1" parent="1">
          <mxGeometry x="380" y="-1010" width="120" height="79" as="geometry" />
        </mxCell>
        <mxCell id="vKwGqFaDPew6xlJv7KLT-39" value="" style="edgeStyle=orthogonalEdgeStyle;rounded=0;orthogonalLoop=1;jettySize=auto;html=1;" edge="1" parent="1" source="vKwGqFaDPew6xlJv7KLT-35" target="vKwGqFaDPew6xlJv7KLT-38">
          <mxGeometry relative="1" as="geometry" />
        </mxCell>
        <mxCell id="vKwGqFaDPew6xlJv7KLT-35" value="BUILD&lt;br&gt;(Dockerfile)" style="label;whiteSpace=wrap;html=1;align=center;verticalAlign=bottom;spacingLeft=0;spacingBottom=4;imageAlign=center;imageVerticalAlign=top;image=img/clipart/Gear_128x128.png;arcSize=50;shadow=1;" vertex="1" parent="1">
          <mxGeometry x="380" y="-851" width="120" height="91" as="geometry" />
        </mxCell>
        <mxCell id="vKwGqFaDPew6xlJv7KLT-38" value="" style="sketch=0;points=[[0,0,0],[0.25,0,0],[0.5,0,0],[0.75,0,0],[1,0,0],[0,1,0],[0.25,1,0],[0.5,1,0],[0.75,1,0],[1,1,0],[0,0.25,0],[0,0.5,0],[0,0.75,0],[1,0.25,0],[1,0.5,0],[1,0.75,0]];outlineConnect=0;fontColor=#232F3E;gradientColor=#F78E04;gradientDirection=north;fillColor=#D05C17;strokeColor=#ffffff;dashed=0;verticalLabelPosition=bottom;verticalAlign=top;align=center;html=1;fontSize=12;fontStyle=0;aspect=fixed;shape=mxgraph.aws4.resourceIcon;resIcon=mxgraph.aws4.ecr;shadow=1;" vertex="1" parent="1">
          <mxGeometry x="401" y="-700" width="78" height="78" as="geometry" />
        </mxCell>
        <mxCell id="vKwGqFaDPew6xlJv7KLT-40" value="AWS ECR" style="text;html=1;strokeColor=none;fillColor=none;align=center;verticalAlign=middle;whiteSpace=wrap;rounded=0;rotation=-90;fontStyle=1" vertex="1" parent="1">
          <mxGeometry x="360" y="-676" width="60" height="30" as="geometry" />
        </mxCell>
        <mxCell id="vKwGqFaDPew6xlJv7KLT-41" value="" style="sketch=0;points=[[0,0,0],[0.25,0,0],[0.5,0,0],[0.75,0,0],[1,0,0],[0,1,0],[0.25,1,0],[0.5,1,0],[0.75,1,0],[1,1,0],[0,0.25,0],[0,0.5,0],[0,0.75,0],[1,0.25,0],[1,0.5,0],[1,0.75,0]];outlineConnect=0;fontColor=#232F3E;gradientColor=#F78E04;gradientDirection=north;fillColor=#D05C17;strokeColor=#ffffff;dashed=0;verticalLabelPosition=bottom;verticalAlign=top;align=center;html=1;fontSize=12;fontStyle=0;aspect=fixed;shape=mxgraph.aws4.resourceIcon;resIcon=mxgraph.aws4.ecs;shadow=1;" vertex="1" parent="1">
          <mxGeometry x="401" y="-558" width="78" height="78" as="geometry" />
        </mxCell>
        <mxCell id="vKwGqFaDPew6xlJv7KLT-42" value="AWS ECS" style="text;html=1;strokeColor=none;fillColor=none;align=center;verticalAlign=middle;whiteSpace=wrap;rounded=0;rotation=-90;fontStyle=1" vertex="1" parent="1">
          <mxGeometry x="360" y="-534" width="60" height="30" as="geometry" />
        </mxCell>
        <mxCell id="vKwGqFaDPew6xlJv7KLT-43" value="&quot;TRADITIONAL&quot;" style="text;html=1;fontSize=19;fontStyle=1;verticalAlign=middle;align=center;fillColor=none;" vertex="1" parent="1">
          <mxGeometry x="500" y="-1080" width="100" height="40" as="geometry" />
        </mxCell>
        <mxCell id="vKwGqFaDPew6xlJv7KLT-44" value="" style="shape=flexArrow;endArrow=classic;html=1;rounded=0;" edge="1" parent="1">
          <mxGeometry width="50" height="50" relative="1" as="geometry">
            <mxPoint x="270" y="-1010" as="sourcePoint" />
            <mxPoint x="270" y="-480" as="targetPoint" />
          </mxGeometry>
        </mxCell>
      </root>
    </mxGraphModel>
  </diagram>
</mxfile>
